<svg width="32" height="38" viewBox="0 0 32 38" fill="none" xmlns="http://www.w3.org/2000/svg">
<path d="M4 36H28V38H4V36Z" fill="#DB3226"/>
<path d="M21.8801 2.15653C21.541 1.80133 21.1351 1.51646 20.6858 1.31818C20.2365 1.1199 19.7525 1.01211 19.2615 1.00096C18.7705 0.989818 18.2821 1.07554 17.8243 1.25323C17.3664 1.43092 16.9481 1.69709 16.5931 2.03653C16.3651 2.25356 16.1658 2.49889 16.0001 2.76653C15.699 2.28179 15.2909 1.8724 14.8072 1.56969C14.3234 1.26699 13.7768 1.079 13.2092 1.02012C12.6415 0.961248 12.068 1.03305 11.5324 1.23002C10.9968 1.42699 10.5134 1.74392 10.1191 2.15653C9.4008 2.90917 9 3.90961 9 4.95003C9 5.99046 9.4008 6.99089 10.1191 7.74353L16.0001 13.8305L21.8811 7.74353C22.5996 6.99088 23.0004 5.99033 23.0002 4.94983C23 3.90933 22.5989 2.90892 21.8801 2.15653V2.15653Z" stroke="#2D71C6" stroke-width="1.5" stroke-miterlimit="10" stroke-linecap="square"/>
<path d="M7 31V29L1.722 22.843C1.25589 22.2991 0.999787 21.6063 1 20.89V12C1 11.4696 1.21071 10.9609 1.58579 10.5858C1.96086 10.2107 2.46957 10 3 10V10C3.53043 10 4.03914 10.2107 4.41421 10.5858C4.78929 10.9609 5 11.4696 5 12V17.417" stroke="#2D71C6" stroke-width="1.5" stroke-miterlimit="10" stroke-linecap="square"/>
<path d="M13.9999 30.9999V24.2429C14 23.8488 13.9224 23.4586 13.7716 23.0945C13.6207 22.7304 13.3997 22.3996 13.1209 22.1209L8.49995 17.4999C8.10203 17.1023 7.5625 16.8789 6.99995 16.8789C6.43739 16.8789 5.89786 17.1023 5.49995 17.4999C5.10229 17.8979 4.87891 18.4374 4.87891 18.9999C4.87891 19.5625 5.10229 20.102 5.49995 20.4999L8.99995 23.9999" stroke="#2D71C6" stroke-width="1.5" stroke-miterlimit="10" stroke-linecap="square"/>
<path d="M25 31V29L30.278 22.843C30.7441 22.2991 31.0002 21.6063 31 20.89V12C31 11.4696 30.7893 10.9609 30.4142 10.5858C30.0391 10.2107 29.5304 10 29 10C28.4696 10 27.9609 10.2107 27.5858 10.5858C27.2107 10.9609 27 11.4696 27 12V17.417" stroke="#2D71C6" stroke-width="1.5" stroke-miterlimit="10" stroke-linecap="square"/>
<path d="M18 30.9999V24.2429C18 23.8488 18.0776 23.4586 18.2284 23.0945C18.3792 22.7304 18.6003 22.3996 18.879 22.1209L23.5 17.4999C23.8979 17.1023 24.4374 16.8789 25 16.8789C25.5626 16.8789 26.1021 17.1023 26.5 17.4999C26.8977 17.8979 27.121 18.4374 27.121 18.9999C27.121 19.5625 26.8977 20.102 26.5 20.4999L23 23.9999" stroke="#2D71C6" stroke-width="1.5" stroke-miterlimit="10" stroke-linecap="square"/>
</svg>
